# xmcd
#
# Track frame offsets:
#	150
#	11497
#	20827
#	31543
#	50445
#	62430
#	73427
#	82692
#	96453
#	110915
#	121830
#	142361
#	154842
#	166744
#	183025
#	196732
#	211934
#	228189
#	241465
#	261022
#	273643
#	283992
#	304418
#	319761
#
# Disc length: 4429 seconds
#
# Revision: 1
# Processed by: cddbd v1.4PL0 Copyright (c) Steve Scherf et al.
# Submitted via: audiograbber 1.80.04
#
DISCID=58114b18
DTITLE=Elvis Presley - Great Country Songs
DYEAR=1900
DGENRE=Oldies
TTITLE0=I Forgot To Remember To Forget
TTITLE1=Blue Moon Of Kentucky
TTITLE2=When My Blue Moon Turns To Gold Again
TTITLE3=Old Shep
TTITLE4=Your Cheatin' Heart
TTITLE5=(Now And Then There's) A Fool Such As I
TTITLE6=Just Call Me Lonesome
TTITLE7=There Goes My Everything
TTITLE8=Kentucky Rain
TTITLE9=From A Jack To A King
TTITLE10=I'll Hold You In My Heart (Till I Can Hold You In My Arms)
TTITLE11=I Really Don't Want To Know
TTITLE12=It Keeps Right On A - Hurtin'
TTITLE13=Green Green Grass Of Home
TTITLE14=Fairytale (Alternate Take 2)
TTITLE15=Gentle On My Mind
TTITLE16=Make The World Go Away
TTITLE17=You Asked Me To
TTITLE18=Funny How Time Slips Away
TTITLE19=Help Me Make It Through The Night
TTITLE20=Susan When She Tried
TTITLE21=He'll Have To Go
TTITLE22=Always On My Mind
TTITLE23=Guitar Man
EXTD=
EXTT0=
EXTT1=
EXTT2=
EXTT3=
EXTT4=
EXTT5=
EXTT6=
EXTT7=
EXTT8=
EXTT9=
EXTT10=
EXTT11=
EXTT12=
EXTT13=
EXTT14=
EXTT15=
EXTT16=
EXTT17=
EXTT18=
EXTT19=
EXTT20=
EXTT21=
EXTT22=
EXTT23=
PLAYORDER=
